<?xml version="1.0" standalone="no"?>
<!DOCTYPE svg PUBLIC "-//W3C//DTD SVG 20010904//EN"
 "http://www.w3.org/TR/2001/REC-SVG-20010904/DTD/svg10.dtd">
<svg version="1.0" xmlns="http://www.w3.org/2000/svg"
 width="120.000000pt" height="120.000000pt" viewBox="0 0 120.000000 120.000000"
 preserveAspectRatio="xMidYMid meet">

<g transform="translate(0.000000,120.000000) scale(0.100000,-0.100000)"
fill="#000000" stroke="none">
<path d="M460 1144 c-192 -50 -356 -213 -405 -399 -19 -75 -19 -223 0 -295 64
-242 294 -419 543 -420 76 0 196 26 213 46 23 28 -4 37 -61 20 -125 -37 -257
-27 -372 28 -85 42 -90 47 -82 97 5 29 17 52 37 70 17 16 29 36 28 50 0 13 0
43 -1 67 0 50 -34 92 -74 92 -13 0 -48 18 -77 41 -47 35 -59 40 -91 34 -34 -5
-38 -3 -38 17 0 21 5 23 50 23 63 0 80 15 59 51 -15 24 -14 27 14 57 16 18 49
64 75 102 52 80 58 122 22 160 l-22 24 48 30 c73 46 264 99 264 73 0 -19 -49
-51 -112 -71 -76 -25 -79 -28 -107 -97 l-20 -52 29 -38 c16 -22 30 -44 30 -49
0 -6 -18 -34 -39 -63 -47 -62 -56 -95 -39 -147 19 -57 68 -88 131 -82 39 3 50
1 54 -12 2 -9 11 -29 20 -44 10 -19 13 -40 8 -66 -5 -29 0 -54 19 -101 29 -72
51 -100 77 -100 21 0 89 56 89 74 0 6 16 36 36 66 29 45 35 61 30 89 -5 30 0
40 34 78 51 55 54 89 8 100 -27 7 -38 19 -63 69 -17 34 -36 69 -44 78 -20 24
-91 41 -114 27 -20 -13 -37 -7 -37 14 0 20 -32 35 -74 35 -20 0 -36 4 -36 8 0
10 45 32 65 32 8 0 15 9 15 20 0 27 -44 27 -87 1 -30 -19 -32 -19 -47 -2 -14
16 -14 21 0 59 16 39 21 43 93 67 65 22 81 32 109 69 32 43 33 43 75 35 162
-30 304 -138 376 -284 34 -68 37 -91 17 -117 -11 -16 -14 -14 -29 17 -21 44
-57 67 -99 63 -28 -2 -34 -8 -38 -32 -3 -20 -16 -36 -37 -49 l-32 -18 -20 40
c-12 22 -21 47 -21 55 0 46 -109 110 -123 72 -4 -11 6 -22 33 -37 22 -13 40
-29 40 -37 0 -23 70 -142 83 -142 21 0 117 60 129 80 7 11 16 20 20 20 3 0 20
-29 37 -65 33 -69 50 -79 75 -43 15 21 16 19 16 -48 0 -126 -54 -258 -146
-352 -56 -58 -67 -82 -36 -82 25 0 104 83 147 155 57 94 80 182 78 300 -1 114
-22 193 -79 286 -73 121 -227 230 -362 258 -72 15 -195 13 -262 -5z m-192
-186 c7 -7 12 -20 12 -29 0 -24 -82 -148 -127 -191 -33 -33 -36 -40 -26 -57
10 -15 9 -20 -2 -25 -7 -2 -19 2 -25 9 -26 31 21 160 91 252 40 54 56 62 77
41z m259 -193 c3 -9 23 -25 44 -36 31 -15 44 -17 60 -8 39 20 67 3 95 -59 27
-62 59 -102 82 -102 8 0 -1 -17 -23 -42 -31 -37 -36 -49 -33 -83 3 -32 -3 -49
-29 -89 -18 -28 -33 -55 -33 -60 0 -14 -31 -46 -45 -46 -7 0 -23 25 -35 55
-17 41 -21 66 -16 97 5 33 2 50 -14 76 -11 18 -20 41 -20 52 0 27 -36 43 -83
37 -107 -14 -141 68 -67 161 35 45 52 56 98 61 7 0 15 -6 19 -14z m-253 -309
c32 -6 33 -8 39 -64 4 -37 2 -58 -5 -61 -25 -8 -45 -41 -52 -82 l-7 -44 -39
45 c-48 55 -107 170 -116 227 -6 39 -4 44 17 52 20 7 34 2 77 -29 29 -21 67
-41 86 -44z"/>
<path d="M605 890 c-4 -7 -3 -16 3 -22 14 -14 45 -2 40 15 -6 16 -34 21 -43 7z"/>
<path d="M889 436 c-7 -14 -20 -28 -31 -31 -23 -8 -34 -29 -42 -87 -9 -61 5
-90 42 -86 30 3 52 40 74 120 19 75 -16 144 -43 84z m-10 -107 c-7 -19 -16
-38 -21 -44 -5 -5 -4 3 2 19 6 16 8 31 5 34 -2 3 0 11 7 19 17 21 19 10 7 -28z"/>
<path d="M861 140 c-14 -8 -8 -40 7 -40 5 0 15 6 21 14 15 17 -8 39 -28 26z"/>
</g>
</svg>
