<?xml version="1.0" standalone="no"?>
<!DOCTYPE svg PUBLIC "-//W3C//DTD SVG 20010904//EN"
 "http://www.w3.org/TR/2001/REC-SVG-20010904/DTD/svg10.dtd">
<svg version="1.0" xmlns="http://www.w3.org/2000/svg"
 width="120.000000pt" height="120.000000pt" viewBox="0 0 120.000000 120.000000"
 preserveAspectRatio="xMidYMid meet">

<g transform="translate(0.000000,120.000000) scale(0.100000,-0.100000)"
fill="#000000" stroke="none">
<path d="M510 1151 c-97 -31 -184 -113 -219 -204 -15 -41 -21 -80 -21 -137 0
-78 -1 -80 -30 -95 -45 -23 -60 -62 -60 -155 0 -65 3 -82 16 -87 25 -9 34 16
34 98 0 116 -25 109 371 109 184 0 339 -4 345 -8 30 -20 34 -55 34 -294 0
-244 -6 -285 -37 -296 -10 -3 -13 16 -13 72 0 69 -2 76 -20 76 -17 0 -19 -8
-22 -77 l-3 -78 -280 -3 c-154 -1 -294 0 -312 3 -56 10 -63 25 -63 139 0 81
-3 106 -15 116 -30 25 -37 -3 -33 -125 l3 -117 33 -29 32 -29 351 0 351 0 34
34 34 34 0 280 c0 270 -1 280 -21 306 -12 15 -32 31 -44 36 -22 8 -23 16 -27
107 -4 114 -26 171 -93 238 -63 64 -125 89 -220 92 -44 1 -91 -1 -105 -6z
m207 -61 c107 -47 163 -136 171 -272 l5 -88 -35 0 -35 0 -7 78 c-8 96 -36 156
-95 197 -39 27 -50 30 -120 30 -69 0 -82 -3 -118 -28 -22 -15 -52 -50 -67 -76
-22 -41 -26 -61 -26 -125 l0 -77 -37 3 -38 3 3 80 c3 94 13 129 52 184 79 108
223 146 347 91z m-66 -101 c47 -16 97 -66 109 -109 5 -19 10 -61 10 -92 l0
-58 -170 0 -170 0 0 58 c1 102 33 160 105 193 47 22 70 23 116 8z"/>
<path d="M538 532 c-31 -19 -58 -68 -58 -105 0 -13 11 -41 25 -61 20 -30 25
-49 25 -100 0 -77 24 -116 71 -116 50 0 69 30 69 111 0 61 3 75 25 101 29 34
33 84 10 128 -29 56 -112 77 -167 42z m116 -52 c29 -28 25 -78 -7 -104 -25
-20 -27 -27 -27 -97 0 -80 -3 -91 -26 -82 -10 4 -14 25 -14 80 0 68 -3 78 -25
99 -14 13 -25 34 -25 49 0 75 71 106 124 55z"/>
<path d="M183 414 c-9 -23 13 -40 32 -24 12 10 13 16 4 26 -15 18 -28 18 -36
-2z"/>
<path d="M892 303 c5 -26 38 -29 38 -4 0 15 -6 21 -21 21 -14 0 -19 -5 -17
-17z"/>
</g>
</svg>
