<?xml version="1.0" standalone="no"?>
<!DOCTYPE svg PUBLIC "-//W3C//DTD SVG 20010904//EN"
 "http://www.w3.org/TR/2001/REC-SVG-20010904/DTD/svg10.dtd">
<svg version="1.0" xmlns="http://www.w3.org/2000/svg"
 width="120.000000pt" height="120.000000pt" viewBox="0 0 120.000000 120.000000"
 preserveAspectRatio="xMidYMid meet">

<g transform="translate(0.000000,120.000000) scale(0.100000,-0.100000)"
fill="#000000" stroke="none">
<path d="M521 1157 c-35 -21 -50 -55 -51 -114 0 -48 -3 -54 -30 -68 -34 -18
-40 -45 -10 -45 54 0 90 38 90 98 0 22 2 23 83 20 l82 -3 3 -35 c5 -47 22 -64
95 -90 64 -22 97 -50 97 -79 0 -10 -16 -40 -35 -67 -19 -27 -35 -57 -35 -66 0
-34 29 -18 69 39 73 101 52 163 -74 212 l-70 26 -5 67 c-7 92 -26 111 -117
115 -45 2 -76 -1 -92 -10z m157 -54 c3 -10 -17 -13 -78 -13 -73 0 -81 2 -70
15 16 20 141 17 148 -2z"/>
<path d="M337 934 c-31 -16 -57 -61 -57 -97 0 -14 16 -49 36 -78 53 -79 74
-124 81 -174 5 -40 1 -51 -37 -114 -23 -39 -39 -75 -35 -81 14 -23 35 -7 75
60 41 68 42 73 38 135 -6 64 -16 89 -86 200 -37 58 -34 88 9 111 30 15 38 38
16 47 -7 3 -25 -2 -40 -9z"/>
<path d="M771 633 c-20 -72 -14 -103 39 -192 50 -85 77 -173 65 -211 -6 -19
-15 -20 -277 -20 l-271 0 5 71 c4 56 2 72 -9 76 -20 8 -30 -11 -38 -70 -8 -58
8 -105 42 -118 13 -5 65 -9 114 -9 l89 0 0 -58 c0 -32 5 -63 12 -70 13 -13 85
-16 112 -6 12 5 16 21 16 70 l0 64 100 0 c95 0 102 1 127 26 24 24 25 31 21
92 -5 70 -25 120 -81 202 -31 44 -34 64 -24 160 1 16 -4 26 -15 28 -12 2 -20
-7 -27 -35z m-141 -518 c0 -41 -2 -45 -25 -45 -23 0 -25 4 -25 45 0 41 2 45
25 45 23 0 25 -4 25 -45z"/>
</g>
</svg>
