<?xml version="1.0" standalone="no"?>
<!DOCTYPE svg PUBLIC "-//W3C//DTD SVG 20010904//EN"
 "http://www.w3.org/TR/2001/REC-SVG-20010904/DTD/svg10.dtd">
<svg version="1.0" xmlns="http://www.w3.org/2000/svg"
 width="120.000000pt" height="120.000000pt" viewBox="0 0 120.000000 120.000000"
 preserveAspectRatio="xMidYMid meet">

<g transform="translate(0.000000,120.000000) scale(0.100000,-0.100000)"
fill="#000000" stroke="none">
<path d="M1075 1142 c-31 -19 -77 -68 -106 -112 l-16 -25 -42 38 -43 38 -139
-3 c-136 -3 -139 -4 -166 -30 -20 -21 -24 -31 -16 -39 9 -9 20 -6 44 12 26 18
49 24 115 27 46 2 99 1 119 -2 36 -7 105 -59 105 -79 0 -6 -12 -23 -26 -38
-21 -22 -32 -26 -59 -22 -27 4 -39 0 -59 -20 -51 -51 -22 -131 47 -131 51 0
77 27 77 80 0 35 5 47 32 69 l32 27 39 -41 39 -42 -4 -124 -3 -125 -218 -218
c-175 -175 -216 -221 -205 -230 11 -9 58 33 230 206 119 119 221 227 227 239
6 12 11 74 11 143 l0 120 -40 44 -41 44 35 22 c46 28 112 103 120 136 13 51
-33 70 -89 36z m37 -54 c-19 -31 -112 -111 -120 -103 -8 8 55 89 87 111 48 32
57 30 33 -8z m-284 -238 c-16 -25 4 -52 24 -32 17 17 29 15 22 -3 -3 -8 -15
-17 -25 -20 -38 -12 -65 35 -37 63 19 19 29 14 16 -8z"/>
<path d="M267 752 l-227 -228 0 -48 0 -47 170 -179 c194 -203 222 -225 282
-217 50 7 114 62 97 84 -9 10 -18 7 -46 -17 -65 -57 -74 -53 -279 151 -100
100 -185 193 -189 206 -3 13 0 33 6 46 6 12 108 119 226 238 190 191 229 239
195 239 -4 0 -110 -103 -235 -228z"/>
<path d="M407 746 c-33 -31 -43 -68 -27 -107 17 -39 46 -59 90 -59 44 0 73 20
90 59 38 93 -80 175 -153 107z m105 -33 c39 -35 7 -98 -48 -91 -18 2 -34 13
-43 29 -13 24 -13 29 2 53 20 30 61 35 89 9z"/>
<path d="M508 532 c-183 -117 -224 -152 -181 -152 29 0 403 243 403 263 0 9
-6 17 -12 16 -7 0 -102 -58 -210 -127z"/>
<path d="M535 448 c-58 -32 -74 -110 -31 -153 32 -32 69 -40 107 -25 39 16 59
46 59 88 0 44 -14 68 -50 87 -34 18 -57 19 -85 3z m73 -44 c26 -18 29 -60 5
-86 -32 -36 -93 -8 -93 42 0 28 30 60 55 60 6 0 21 -7 33 -16z"/>
</g>
</svg>
